<svg width="320" height="3677" viewBox="0 0 320 3677" fill="none" xmlns="http://www.w3.org/2000/svg">
<g filter="url(#filter0_d)">
<path fill-rule="evenodd" clip-rule="evenodd" d="M-54.8417 332.76C-54.5606 307.16 -24.6779 294.68 -12.2272 272.724C-2.81929 256.133 -4.33853 234.431 8.69681 220.711C23.754 204.864 43.466 188.445 65.0368 191.405C86.5137 194.352 95.6379 221.106 112.759 234.991C130.292 249.21 157.43 252.47 166.279 273.511C175.326 295.024 170.041 321.872 157.306 340.917C145.53 358.527 122.021 360.604 102.706 368.58C87.5812 374.826 72.7892 378.611 56.8766 382.389C33.01 388.056 9.12542 406.278 -13.5827 396.191C-36.8107 385.872 -55.1257 358.635 -54.8417 332.76Z" fill="url(#paint0_linear)"/>
</g>
<g filter="url(#filter1_d)">
<path fill-rule="evenodd" clip-rule="evenodd" d="M-6.69199 188.815C4.88654 189.014 16.1033 191.618 26.0576 197.535C36.822 203.934 46.4863 212.27 51.8222 223.599C57.6551 235.983 61.1315 250.256 57.0418 263.319C52.933 276.445 41.8009 286.038 30.0424 293.172C19.0064 299.868 6.21017 301.585 -6.69199 301.989C-20.0058 302.405 -34.9599 304.12 -45.1354 295.524C-55.1708 287.046 -53.158 271.519 -57.4555 259.105C-61.8751 246.338 -74.2178 234.861 -70.6461 221.831C-67.0673 208.775 -52.2962 202.609 -40.2669 196.399C-29.8159 191.004 -18.4517 188.614 -6.69199 188.815Z" fill="url(#paint1_linear)"/>
</g>
<g filter="url(#filter2_d)">
<path fill-rule="evenodd" clip-rule="evenodd" d="M-39.0881 1008.78C-16.7774 996.224 8.97169 1015.86 34.2119 1015.67C53.2838 1015.52 71.3188 1003.35 89.7178 1007.78C110.971 1012.9 135.046 1021.76 143.268 1041.92C151.454 1061.99 132.846 1083.27 129.382 1105.04C125.835 1127.34 136.581 1152.47 122.783 1170.65C108.676 1189.24 82.7826 1198.09 59.921 1196.58C38.7824 1195.19 25.2294 1175.87 8.66432 1163.13C-4.30686 1153.15 -14.981 1142.24 -26.2093 1130.35C-43.0501 1112.51 -70.7735 1100.94 -73.3912 1076.23C-76.069 1050.95 -61.6384 1021.47 -39.0881 1008.78Z" fill="url(#paint2_linear)"/>
</g>
<g filter="url(#filter3_d)">
<path fill-rule="evenodd" clip-rule="evenodd" d="M109.646 978.507C115.264 988.633 118.617 999.649 118.47 1011.23C118.31 1023.75 115.923 1036.29 108.78 1046.57C100.972 1057.82 90.3493 1067.96 76.9908 1070.95C63.5695 1073.96 49.696 1069.11 37.6383 1062.5C26.3215 1056.29 18.4362 1046.07 11.6355 1035.09C4.61778 1023.77 -4.34429 1011.68 -1.98772 998.568C0.336384 985.638 14.7897 979.618 23.3919 969.689C32.2386 959.478 36.0069 943.05 49.0768 939.629C62.1731 936.2 74.8984 945.909 86.2911 953.222C96.189 959.575 103.941 968.222 109.646 978.507Z" fill="url(#paint3_linear)"/>
</g>
<g filter="url(#filter4_d)">
<path fill-rule="evenodd" clip-rule="evenodd" d="M285.461 -10.6893C304.374 -15.1761 325.672 -7.73028 340.041 5.3419C353.839 17.8951 355.471 38.1568 359.222 56.4143C362.542 72.5708 365.365 88.9213 360.448 104.667C355.49 120.543 346.431 136.048 331.844 144.078C317.954 151.724 301.289 144.908 285.461 145.947C267.99 147.095 248.364 161.05 234.422 150.477C220.42 139.859 230.299 116.693 224.869 99.9972C219.439 83.3059 197.786 70.3497 202.895 53.5581C207.985 36.8309 233.141 38.1719 246.952 27.425C261.566 16.0533 267.434 -6.41292 285.461 -10.6893Z" fill="url(#paint4_linear)"/>
</g>
<g filter="url(#filter5_d)">
<path fill-rule="evenodd" clip-rule="evenodd" d="M339.287 70.646C349.211 70.9019 356.607 79.1634 364.274 85.4713C371.445 91.3725 380.051 96.8875 382.168 105.931C384.234 114.756 377.802 122.849 375.046 131.483C372.27 140.18 373.236 151.067 365.988 156.617C358.718 162.183 348.357 160.117 339.287 158.865C331.299 157.763 323.817 154.867 317.452 149.918C311.256 145.099 307.683 138.244 303.916 131.357C299.183 122.703 290.811 114.413 292.744 104.741C294.693 94.9827 305.318 90.0385 313.345 84.1581C321.408 78.2519 329.296 70.3884 339.287 70.646Z" fill="url(#paint5_linear)"/>
</g>
<g filter="url(#filter6_d)">
<path fill-rule="evenodd" clip-rule="evenodd" d="M208.616 756.139C209.178 736.709 221.882 718.065 238.227 707.569C253.924 697.49 273.918 701.158 292.524 702.26C308.989 703.235 325.514 704.739 339.45 713.564C353.502 722.463 366.133 735.226 370.115 751.394C373.906 766.79 363.008 781.123 359.916 796.68C356.502 813.853 364.902 836.422 351.081 847.153C337.201 857.929 317.381 842.39 299.849 843.315C282.321 844.24 264.202 861.802 249.305 852.52C234.465 843.275 242.271 819.323 235.465 803.201C228.263 786.142 208.081 774.659 208.616 756.139Z" fill="url(#paint6_linear)"/>
</g>
<g filter="url(#filter7_d)">
<path fill-rule="evenodd" clip-rule="evenodd" d="M301.111 725.199C303.927 715.679 313.821 710.673 321.898 704.901C329.455 699.501 337.009 692.616 346.292 692.911C355.352 693.199 361.504 701.507 369.131 706.404C376.812 711.336 387.578 713.221 391.063 721.658C394.559 730.121 389.881 739.595 386.324 748.032C383.192 755.462 378.459 761.94 372.03 766.807C365.772 771.544 358.226 773.222 350.599 775.078C341.015 777.41 330.841 783.351 321.998 778.981C313.077 774.572 311.051 763.029 307.449 753.754C303.831 744.437 298.276 734.783 301.111 725.199Z" fill="url(#paint7_linear)"/>
</g>
<g filter="url(#filter8_d)">
<path fill-rule="evenodd" clip-rule="evenodd" d="M-54.8417 1896.76C-54.5606 1871.16 -24.6779 1858.68 -12.2272 1836.72C-2.81929 1820.13 -4.33853 1798.43 8.69681 1784.71C23.754 1768.86 43.466 1752.45 65.0368 1755.41C86.5137 1758.35 95.6379 1785.11 112.759 1798.99C130.292 1813.21 157.43 1816.47 166.279 1837.51C175.326 1859.02 170.041 1885.87 157.306 1904.92C145.53 1922.53 122.021 1924.6 102.706 1932.58C87.5812 1938.83 72.7892 1942.61 56.8766 1946.39C33.01 1952.06 9.12542 1970.28 -13.5827 1960.19C-36.8107 1949.87 -55.1257 1922.63 -54.8417 1896.76Z" fill="url(#paint8_linear)"/>
</g>
<g filter="url(#filter9_d)">
<path fill-rule="evenodd" clip-rule="evenodd" d="M-6.69199 1752.82C4.88654 1753.01 16.1033 1755.62 26.0576 1761.54C36.822 1767.93 46.4863 1776.27 51.8222 1787.6C57.6551 1799.98 61.1315 1814.26 57.0418 1827.32C52.933 1840.44 41.8009 1850.04 30.0424 1857.17C19.0064 1863.87 6.21017 1865.58 -6.69199 1865.99C-20.0058 1866.41 -34.9599 1868.12 -45.1354 1859.52C-55.1708 1851.05 -53.158 1835.52 -57.4555 1823.11C-61.8751 1810.34 -74.2178 1798.86 -70.6461 1785.83C-67.0673 1772.78 -52.2962 1766.61 -40.2669 1760.4C-29.8159 1755 -18.4517 1752.61 -6.69199 1752.82Z" fill="url(#paint9_linear)"/>
</g>
<g filter="url(#filter10_d)">
<path fill-rule="evenodd" clip-rule="evenodd" d="M-54.8417 3653.76C-54.5606 3628.16 -24.6779 3615.68 -12.2272 3593.72C-2.81929 3577.13 -4.33853 3555.43 8.69681 3541.71C23.754 3525.86 43.466 3509.45 65.0368 3512.41C86.5137 3515.35 95.6379 3542.11 112.759 3555.99C130.292 3570.21 157.43 3573.47 166.279 3594.51C175.326 3616.02 170.041 3642.87 157.306 3661.92C145.53 3679.53 122.021 3681.6 102.706 3689.58C87.5812 3695.83 72.7892 3699.61 56.8766 3703.39C33.01 3709.06 9.12542 3727.28 -13.5827 3717.19C-36.8107 3706.87 -55.1257 3679.63 -54.8417 3653.76Z" fill="url(#paint10_linear)"/>
</g>
<g filter="url(#filter11_d)">
<path fill-rule="evenodd" clip-rule="evenodd" d="M-6.69199 3509.82C4.88654 3510.01 16.1033 3512.62 26.0576 3518.54C36.822 3524.93 46.4863 3533.27 51.8222 3544.6C57.6551 3556.98 61.1315 3571.26 57.0418 3584.32C52.933 3597.44 41.8009 3607.04 30.0424 3614.17C19.0064 3620.87 6.21017 3622.58 -6.69199 3622.99C-20.0058 3623.41 -34.9599 3625.12 -45.1354 3616.52C-55.1708 3608.05 -53.158 3592.52 -57.4555 3580.11C-61.8751 3567.34 -74.2178 3555.86 -70.6461 3542.83C-67.0673 3529.78 -52.2962 3523.61 -40.2669 3517.4C-29.8159 3512 -18.4517 3509.61 -6.69199 3509.82Z" fill="url(#paint11_linear)"/>
</g>
<g filter="url(#filter12_d)">
<path fill-rule="evenodd" clip-rule="evenodd" d="M-39.0881 2572.78C-16.7774 2560.22 8.97169 2579.86 34.2119 2579.67C53.2838 2579.52 71.3188 2567.35 89.7178 2571.78C110.971 2576.9 135.046 2585.76 143.268 2605.92C151.454 2625.99 132.846 2647.27 129.382 2669.04C125.835 2691.33 136.581 2716.47 122.783 2734.65C108.676 2753.24 82.7826 2762.09 59.921 2760.58C38.7824 2759.19 25.2294 2739.87 8.66432 2727.13C-4.30686 2717.15 -14.981 2706.24 -26.2093 2694.35C-43.0501 2676.51 -70.7735 2664.94 -73.3912 2640.23C-76.069 2614.95 -61.6384 2585.47 -39.0881 2572.78Z" fill="url(#paint12_linear)"/>
</g>
<g filter="url(#filter13_d)">
<path fill-rule="evenodd" clip-rule="evenodd" d="M109.646 2542.51C115.264 2552.63 118.617 2563.65 118.47 2575.23C118.31 2587.75 115.923 2600.29 108.78 2610.57C100.972 2621.82 90.3493 2631.96 76.9908 2634.95C63.5695 2637.96 49.696 2633.11 37.6383 2626.5C26.3215 2620.29 18.4362 2610.07 11.6355 2599.09C4.61778 2587.77 -4.34429 2575.68 -1.98772 2562.57C0.336384 2549.64 14.7897 2543.62 23.3919 2533.69C32.2386 2523.48 36.0069 2507.05 49.0768 2503.63C62.1731 2500.2 74.8984 2509.91 86.2911 2517.22C96.189 2523.58 103.941 2532.22 109.646 2542.51Z" fill="url(#paint13_linear)"/>
</g>
<g filter="url(#filter14_d)">
<path fill-rule="evenodd" clip-rule="evenodd" d="M285.461 1553.31C304.374 1548.82 325.672 1556.27 340.041 1569.34C353.839 1581.9 355.471 1602.16 359.222 1620.41C362.542 1636.57 365.365 1652.92 360.448 1668.67C355.49 1684.54 346.431 1700.05 331.844 1708.08C317.954 1715.72 301.289 1708.91 285.461 1709.95C267.99 1711.09 248.364 1725.05 234.422 1714.48C220.42 1703.86 230.299 1680.69 224.869 1664C219.439 1647.31 197.786 1634.35 202.895 1617.56C207.985 1600.83 233.141 1602.17 246.952 1591.43C261.566 1580.05 267.434 1557.59 285.461 1553.31Z" fill="url(#paint14_linear)"/>
</g>
<g filter="url(#filter15_d)">
<path fill-rule="evenodd" clip-rule="evenodd" d="M339.287 1634.65C349.211 1634.9 356.607 1643.16 364.274 1649.47C371.445 1655.37 380.051 1660.89 382.168 1669.93C384.234 1678.76 377.802 1686.85 375.046 1695.48C372.27 1704.18 373.236 1715.07 365.988 1720.62C358.718 1726.18 348.357 1724.12 339.287 1722.87C331.299 1721.76 323.817 1718.87 317.452 1713.92C311.256 1709.1 307.683 1702.24 303.916 1695.36C299.183 1686.7 290.811 1678.41 292.744 1668.74C294.693 1658.98 305.318 1654.04 313.345 1648.16C321.408 1642.25 329.296 1634.39 339.287 1634.65Z" fill="url(#paint15_linear)"/>
</g>
<g filter="url(#filter16_d)">
<path fill-rule="evenodd" clip-rule="evenodd" d="M285.461 3310.31C304.374 3305.82 325.672 3313.27 340.041 3326.34C353.839 3338.9 355.471 3359.16 359.222 3377.41C362.542 3393.57 365.365 3409.92 360.448 3425.67C355.49 3441.54 346.431 3457.05 331.844 3465.08C317.954 3472.72 301.289 3465.91 285.461 3466.95C267.99 3468.09 248.364 3482.05 234.422 3471.48C220.42 3460.86 230.299 3437.69 224.869 3421C219.439 3404.31 197.786 3391.35 202.895 3374.56C207.985 3357.83 233.141 3359.17 246.952 3348.43C261.566 3337.05 267.434 3314.59 285.461 3310.31Z" fill="url(#paint16_linear)"/>
</g>
<g filter="url(#filter17_d)">
<path fill-rule="evenodd" clip-rule="evenodd" d="M339.287 3391.65C349.211 3391.9 356.607 3400.16 364.274 3406.47C371.445 3412.37 380.051 3417.89 382.168 3426.93C384.234 3435.76 377.802 3443.85 375.046 3452.48C372.27 3461.18 373.236 3472.07 365.988 3477.62C358.718 3483.18 348.357 3481.12 339.287 3479.87C331.299 3478.76 323.817 3475.87 317.452 3470.92C311.256 3466.1 307.683 3459.24 303.916 3452.36C299.183 3443.7 290.811 3435.41 292.744 3425.74C294.693 3415.98 305.318 3411.04 313.345 3405.16C321.408 3399.25 329.296 3391.39 339.287 3391.65Z" fill="url(#paint17_linear)"/>
</g>
<g filter="url(#filter18_d)">
<path fill-rule="evenodd" clip-rule="evenodd" d="M208.616 2320.14C209.178 2300.71 221.882 2282.07 238.227 2271.57C253.924 2261.49 273.918 2265.16 292.524 2266.26C308.989 2267.23 325.514 2268.74 339.45 2277.56C353.502 2286.46 366.133 2299.23 370.115 2315.39C373.906 2330.79 363.008 2345.12 359.916 2360.68C356.502 2377.85 364.902 2400.42 351.081 2411.15C337.201 2421.93 317.381 2406.39 299.849 2407.32C282.321 2408.24 264.202 2425.8 249.305 2416.52C234.465 2407.27 242.271 2383.32 235.465 2367.2C228.263 2350.14 208.081 2338.66 208.616 2320.14Z" fill="url(#paint18_linear)"/>
</g>
<g filter="url(#filter19_d)">
<path fill-rule="evenodd" clip-rule="evenodd" d="M301.111 2289.2C303.927 2279.68 313.821 2274.67 321.898 2268.9C329.455 2263.5 337.009 2256.62 346.292 2256.91C355.352 2257.2 361.504 2265.51 369.131 2270.4C376.812 2275.34 387.578 2277.22 391.063 2285.66C394.559 2294.12 389.881 2303.6 386.324 2312.03C383.192 2319.46 378.459 2325.94 372.03 2330.81C365.772 2335.54 358.226 2337.22 350.599 2339.08C341.015 2341.41 330.841 2347.35 321.998 2342.98C313.077 2338.57 311.051 2327.03 307.449 2317.75C303.831 2308.44 298.276 2298.78 301.111 2289.2Z" fill="url(#paint19_linear)"/>
</g>
<defs>
<filter id="filter0_d" x="-93" y="160.545" width="304.532" height="274.26" filterUnits="userSpaceOnUse" color-interpolation-filters="sRGB">
<feFlood flood-opacity="0" result="BackgroundImageFix"/>
<feColorMatrix in="SourceAlpha" type="matrix" values="0 0 0 0 0 0 0 0 0 0 0 0 0 0 0 0 0 0 127 0" result="hardAlpha"/>
<feOffset dx="8" dy="8"/>
<feGaussianBlur stdDeviation="8"/>
<feColorMatrix type="matrix" values="0 0 0 0 0.454167 0 0 0 0 0.450382 0 0 0 0 0.450382 0 0 0 0.1 0"/>
<feBlend mode="normal" in2="BackgroundImageFix" result="effect1_dropShadow"/>
<feBlend mode="normal" in="SourceGraphic" in2="effect1_dropShadow" result="shape"/>
</filter>
<filter id="filter1_d" x="-79.2861" y="180.804" width="162.107" height="145.604" filterUnits="userSpaceOnUse" color-interpolation-filters="sRGB">
<feFlood flood-opacity="0" result="BackgroundImageFix"/>
<feColorMatrix in="SourceAlpha" type="matrix" values="0 0 0 0 0 0 0 0 0 0 0 0 0 0 0 0 0 0 127 0" result="hardAlpha"/>
<feOffset dx="8" dy="8"/>
<feGaussianBlur stdDeviation="8"/>
<feColorMatrix type="matrix" values="0 0 0 0 0.454167 0 0 0 0 0.450382 0 0 0 0 0.450382 0 0 0 0.1 0"/>
<feBlend mode="normal" in2="BackgroundImageFix" result="effect1_dropShadow"/>
<feBlend mode="normal" in="SourceGraphic" in2="effect1_dropShadow" result="shape"/>
</filter>
<filter id="filter2_d" x="-105.329" y="922.522" width="329.215" height="329.215" filterUnits="userSpaceOnUse" color-interpolation-filters="sRGB">
<feFlood flood-opacity="0" result="BackgroundImageFix"/>
<feColorMatrix in="SourceAlpha" type="matrix" values="0 0 0 0 0 0 0 0 0 0 0 0 0 0 0 0 0 0 127 0" result="hardAlpha"/>
<feOffset dx="8" dy="8"/>
<feGaussianBlur stdDeviation="8"/>
<feColorMatrix type="matrix" values="0 0 0 0 0.454167 0 0 0 0 0.450382 0 0 0 0 0.450382 0 0 0 0.1 0"/>
<feBlend mode="normal" in2="BackgroundImageFix" result="effect1_dropShadow"/>
<feBlend mode="normal" in="SourceGraphic" in2="effect1_dropShadow" result="shape"/>
</filter>
<filter id="filter3_d" x="-29.0244" y="914.561" width="195.437" height="201.478" filterUnits="userSpaceOnUse" color-interpolation-filters="sRGB">
<feFlood flood-opacity="0" result="BackgroundImageFix"/>
<feColorMatrix in="SourceAlpha" type="matrix" values="0 0 0 0 0 0 0 0 0 0 0 0 0 0 0 0 0 0 127 0" result="hardAlpha"/>
<feOffset dx="8" dy="8"/>
<feGaussianBlur stdDeviation="8"/>
<feColorMatrix type="matrix" values="0 0 0 0 0.454167 0 0 0 0 0.450382 0 0 0 0 0.450382 0 0 0 0.1 0"/>
<feBlend mode="normal" in2="BackgroundImageFix" result="effect1_dropShadow"/>
<feBlend mode="normal" in="SourceGraphic" in2="effect1_dropShadow" result="shape"/>
</filter>
<filter id="filter4_d" x="178.121" y="-20" width="192.978" height="198.412" filterUnits="userSpaceOnUse" color-interpolation-filters="sRGB">
<feFlood flood-opacity="0" result="BackgroundImageFix"/>
<feColorMatrix in="SourceAlpha" type="matrix" values="0 0 0 0 0 0 0 0 0 0 0 0 0 0 0 0 0 0 127 0" result="hardAlpha"/>
<feOffset dx="-8" dy="8"/>
<feGaussianBlur stdDeviation="8"/>
<feColorMatrix type="matrix" values="0 0 0 0 0.454167 0 0 0 0 0.450382 0 0 0 0 0.450382 0 0 0 0.1 0"/>
<feBlend mode="normal" in2="BackgroundImageFix" result="effect1_dropShadow"/>
<feBlend mode="normal" in="SourceGraphic" in2="effect1_dropShadow" result="shape"/>
</filter>
<filter id="filter5_d" x="268.459" y="62.6398" width="122.111" height="121.659" filterUnits="userSpaceOnUse" color-interpolation-filters="sRGB">
<feFlood flood-opacity="0" result="BackgroundImageFix"/>
<feColorMatrix in="SourceAlpha" type="matrix" values="0 0 0 0 0 0 0 0 0 0 0 0 0 0 0 0 0 0 127 0" result="hardAlpha"/>
<feOffset dx="-8" dy="8"/>
<feGaussianBlur stdDeviation="8"/>
<feColorMatrix type="matrix" values="0 0 0 0 0.454167 0 0 0 0 0.450382 0 0 0 0 0.450382 0 0 0 0.1 0"/>
<feBlend mode="normal" in2="BackgroundImageFix" result="effect1_dropShadow"/>
<feBlend mode="normal" in="SourceGraphic" in2="effect1_dropShadow" result="shape"/>
</filter>
<filter id="filter6_d" x="161.78" y="672.808" width="234.405" height="230.563" filterUnits="userSpaceOnUse" color-interpolation-filters="sRGB">
<feFlood flood-opacity="0" result="BackgroundImageFix"/>
<feColorMatrix in="SourceAlpha" type="matrix" values="0 0 0 0 0 0 0 0 0 0 0 0 0 0 0 0 0 0 127 0" result="hardAlpha"/>
<feOffset dx="-8" dy="8"/>
<feGaussianBlur stdDeviation="8"/>
<feColorMatrix type="matrix" values="0 0 0 0 0.454167 0 0 0 0 0.450382 0 0 0 0 0.450382 0 0 0 0.1 0"/>
<feBlend mode="normal" in2="BackgroundImageFix" result="effect1_dropShadow"/>
<feBlend mode="normal" in="SourceGraphic" in2="effect1_dropShadow" result="shape"/>
</filter>
<filter id="filter7_d" x="264.985" y="675.389" width="141.926" height="142.246" filterUnits="userSpaceOnUse" color-interpolation-filters="sRGB">
<feFlood flood-opacity="0" result="BackgroundImageFix"/>
<feColorMatrix in="SourceAlpha" type="matrix" values="0 0 0 0 0 0 0 0 0 0 0 0 0 0 0 0 0 0 127 0" result="hardAlpha"/>
<feOffset dx="-8" dy="8"/>
<feGaussianBlur stdDeviation="8"/>
<feColorMatrix type="matrix" values="0 0 0 0 0.454167 0 0 0 0 0.450382 0 0 0 0 0.450382 0 0 0 0.1 0"/>
<feBlend mode="normal" in2="BackgroundImageFix" result="effect1_dropShadow"/>
<feBlend mode="normal" in="SourceGraphic" in2="effect1_dropShadow" result="shape"/>
</filter>
<filter id="filter8_d" x="-93" y="1724.54" width="304.532" height="274.26" filterUnits="userSpaceOnUse" color-interpolation-filters="sRGB">
<feFlood flood-opacity="0" result="BackgroundImageFix"/>
<feColorMatrix in="SourceAlpha" type="matrix" values="0 0 0 0 0 0 0 0 0 0 0 0 0 0 0 0 0 0 127 0" result="hardAlpha"/>
<feOffset dx="8" dy="8"/>
<feGaussianBlur stdDeviation="8"/>
<feColorMatrix type="matrix" values="0 0 0 0 0.454167 0 0 0 0 0.450382 0 0 0 0 0.450382 0 0 0 0.1 0"/>
<feBlend mode="normal" in2="BackgroundImageFix" result="effect1_dropShadow"/>
<feBlend mode="normal" in="SourceGraphic" in2="effect1_dropShadow" result="shape"/>
</filter>
<filter id="filter9_d" x="-79.2861" y="1744.8" width="162.107" height="145.604" filterUnits="userSpaceOnUse" color-interpolation-filters="sRGB">
<feFlood flood-opacity="0" result="BackgroundImageFix"/>
<feColorMatrix in="SourceAlpha" type="matrix" values="0 0 0 0 0 0 0 0 0 0 0 0 0 0 0 0 0 0 127 0" result="hardAlpha"/>
<feOffset dx="8" dy="8"/>
<feGaussianBlur stdDeviation="8"/>
<feColorMatrix type="matrix" values="0 0 0 0 0.454167 0 0 0 0 0.450382 0 0 0 0 0.450382 0 0 0 0.1 0"/>
<feBlend mode="normal" in2="BackgroundImageFix" result="effect1_dropShadow"/>
<feBlend mode="normal" in="SourceGraphic" in2="effect1_dropShadow" result="shape"/>
</filter>
<filter id="filter10_d" x="-93" y="3481.54" width="304.532" height="274.26" filterUnits="userSpaceOnUse" color-interpolation-filters="sRGB">
<feFlood flood-opacity="0" result="BackgroundImageFix"/>
<feColorMatrix in="SourceAlpha" type="matrix" values="0 0 0 0 0 0 0 0 0 0 0 0 0 0 0 0 0 0 127 0" result="hardAlpha"/>
<feOffset dx="8" dy="8"/>
<feGaussianBlur stdDeviation="8"/>
<feColorMatrix type="matrix" values="0 0 0 0 0.454167 0 0 0 0 0.450382 0 0 0 0 0.450382 0 0 0 0.1 0"/>
<feBlend mode="normal" in2="BackgroundImageFix" result="effect1_dropShadow"/>
<feBlend mode="normal" in="SourceGraphic" in2="effect1_dropShadow" result="shape"/>
</filter>
<filter id="filter11_d" x="-79.2861" y="3501.8" width="162.107" height="145.604" filterUnits="userSpaceOnUse" color-interpolation-filters="sRGB">
<feFlood flood-opacity="0" result="BackgroundImageFix"/>
<feColorMatrix in="SourceAlpha" type="matrix" values="0 0 0 0 0 0 0 0 0 0 0 0 0 0 0 0 0 0 127 0" result="hardAlpha"/>
<feOffset dx="8" dy="8"/>
<feGaussianBlur stdDeviation="8"/>
<feColorMatrix type="matrix" values="0 0 0 0 0.454167 0 0 0 0 0.450382 0 0 0 0 0.450382 0 0 0 0.1 0"/>
<feBlend mode="normal" in2="BackgroundImageFix" result="effect1_dropShadow"/>
<feBlend mode="normal" in="SourceGraphic" in2="effect1_dropShadow" result="shape"/>
</filter>
<filter id="filter12_d" x="-105.329" y="2486.52" width="329.215" height="329.215" filterUnits="userSpaceOnUse" color-interpolation-filters="sRGB">
<feFlood flood-opacity="0" result="BackgroundImageFix"/>
<feColorMatrix in="SourceAlpha" type="matrix" values="0 0 0 0 0 0 0 0 0 0 0 0 0 0 0 0 0 0 127 0" result="hardAlpha"/>
<feOffset dx="8" dy="8"/>
<feGaussianBlur stdDeviation="8"/>
<feColorMatrix type="matrix" values="0 0 0 0 0.454167 0 0 0 0 0.450382 0 0 0 0 0.450382 0 0 0 0.1 0"/>
<feBlend mode="normal" in2="BackgroundImageFix" result="effect1_dropShadow"/>
<feBlend mode="normal" in="SourceGraphic" in2="effect1_dropShadow" result="shape"/>
</filter>
<filter id="filter13_d" x="-29.0244" y="2478.56" width="195.437" height="201.478" filterUnits="userSpaceOnUse" color-interpolation-filters="sRGB">
<feFlood flood-opacity="0" result="BackgroundImageFix"/>
<feColorMatrix in="SourceAlpha" type="matrix" values="0 0 0 0 0 0 0 0 0 0 0 0 0 0 0 0 0 0 127 0" result="hardAlpha"/>
<feOffset dx="8" dy="8"/>
<feGaussianBlur stdDeviation="8"/>
<feColorMatrix type="matrix" values="0 0 0 0 0.454167 0 0 0 0 0.450382 0 0 0 0 0.450382 0 0 0 0.1 0"/>
<feBlend mode="normal" in2="BackgroundImageFix" result="effect1_dropShadow"/>
<feBlend mode="normal" in="SourceGraphic" in2="effect1_dropShadow" result="shape"/>
</filter>
<filter id="filter14_d" x="178.121" y="1544" width="192.978" height="198.412" filterUnits="userSpaceOnUse" color-interpolation-filters="sRGB">
<feFlood flood-opacity="0" result="BackgroundImageFix"/>
<feColorMatrix in="SourceAlpha" type="matrix" values="0 0 0 0 0 0 0 0 0 0 0 0 0 0 0 0 0 0 127 0" result="hardAlpha"/>
<feOffset dx="-8" dy="8"/>
<feGaussianBlur stdDeviation="8"/>
<feColorMatrix type="matrix" values="0 0 0 0 0.454167 0 0 0 0 0.450382 0 0 0 0 0.450382 0 0 0 0.1 0"/>
<feBlend mode="normal" in2="BackgroundImageFix" result="effect1_dropShadow"/>
<feBlend mode="normal" in="SourceGraphic" in2="effect1_dropShadow" result="shape"/>
</filter>
<filter id="filter15_d" x="268.459" y="1626.64" width="122.111" height="121.659" filterUnits="userSpaceOnUse" color-interpolation-filters="sRGB">
<feFlood flood-opacity="0" result="BackgroundImageFix"/>
<feColorMatrix in="SourceAlpha" type="matrix" values="0 0 0 0 0 0 0 0 0 0 0 0 0 0 0 0 0 0 127 0" result="hardAlpha"/>
<feOffset dx="-8" dy="8"/>
<feGaussianBlur stdDeviation="8"/>
<feColorMatrix type="matrix" values="0 0 0 0 0.454167 0 0 0 0 0.450382 0 0 0 0 0.450382 0 0 0 0.1 0"/>
<feBlend mode="normal" in2="BackgroundImageFix" result="effect1_dropShadow"/>
<feBlend mode="normal" in="SourceGraphic" in2="effect1_dropShadow" result="shape"/>
</filter>
<filter id="filter16_d" x="178.121" y="3301" width="192.978" height="198.412" filterUnits="userSpaceOnUse" color-interpolation-filters="sRGB">
<feFlood flood-opacity="0" result="BackgroundImageFix"/>
<feColorMatrix in="SourceAlpha" type="matrix" values="0 0 0 0 0 0 0 0 0 0 0 0 0 0 0 0 0 0 127 0" result="hardAlpha"/>
<feOffset dx="-8" dy="8"/>
<feGaussianBlur stdDeviation="8"/>
<feColorMatrix type="matrix" values="0 0 0 0 0.454167 0 0 0 0 0.450382 0 0 0 0 0.450382 0 0 0 0.1 0"/>
<feBlend mode="normal" in2="BackgroundImageFix" result="effect1_dropShadow"/>
<feBlend mode="normal" in="SourceGraphic" in2="effect1_dropShadow" result="shape"/>
</filter>
<filter id="filter17_d" x="268.459" y="3383.64" width="122.111" height="121.659" filterUnits="userSpaceOnUse" color-interpolation-filters="sRGB">
<feFlood flood-opacity="0" result="BackgroundImageFix"/>
<feColorMatrix in="SourceAlpha" type="matrix" values="0 0 0 0 0 0 0 0 0 0 0 0 0 0 0 0 0 0 127 0" result="hardAlpha"/>
<feOffset dx="-8" dy="8"/>
<feGaussianBlur stdDeviation="8"/>
<feColorMatrix type="matrix" values="0 0 0 0 0.454167 0 0 0 0 0.450382 0 0 0 0 0.450382 0 0 0 0.1 0"/>
<feBlend mode="normal" in2="BackgroundImageFix" result="effect1_dropShadow"/>
<feBlend mode="normal" in="SourceGraphic" in2="effect1_dropShadow" result="shape"/>
</filter>
<filter id="filter18_d" x="161.78" y="2236.81" width="234.405" height="230.563" filterUnits="userSpaceOnUse" color-interpolation-filters="sRGB">
<feFlood flood-opacity="0" result="BackgroundImageFix"/>
<feColorMatrix in="SourceAlpha" type="matrix" values="0 0 0 0 0 0 0 0 0 0 0 0 0 0 0 0 0 0 127 0" result="hardAlpha"/>
<feOffset dx="-8" dy="8"/>
<feGaussianBlur stdDeviation="8"/>
<feColorMatrix type="matrix" values="0 0 0 0 0.454167 0 0 0 0 0.450382 0 0 0 0 0.450382 0 0 0 0.1 0"/>
<feBlend mode="normal" in2="BackgroundImageFix" result="effect1_dropShadow"/>
<feBlend mode="normal" in="SourceGraphic" in2="effect1_dropShadow" result="shape"/>
</filter>
<filter id="filter19_d" x="264.985" y="2239.39" width="141.926" height="142.246" filterUnits="userSpaceOnUse" color-interpolation-filters="sRGB">
<feFlood flood-opacity="0" result="BackgroundImageFix"/>
<feColorMatrix in="SourceAlpha" type="matrix" values="0 0 0 0 0 0 0 0 0 0 0 0 0 0 0 0 0 0 127 0" result="hardAlpha"/>
<feOffset dx="-8" dy="8"/>
<feGaussianBlur stdDeviation="8"/>
<feColorMatrix type="matrix" values="0 0 0 0 0.454167 0 0 0 0 0.450382 0 0 0 0 0.450382 0 0 0 0.1 0"/>
<feBlend mode="normal" in2="BackgroundImageFix" result="effect1_dropShadow"/>
<feBlend mode="normal" in="SourceGraphic" in2="effect1_dropShadow" result="shape"/>
</filter>
<linearGradient id="paint0_linear" x1="75.6935" y1="380.838" x2="26.8394" y2="198.512" gradientUnits="userSpaceOnUse">
<stop stop-color="#00CDAC"/>
<stop offset="1" stop-color="#8DDAD5"/>
</linearGradient>
<linearGradient id="paint1_linear" x1="-71.2861" y1="245.606" x2="58.8204" y2="245.606" gradientUnits="userSpaceOnUse">
<stop stop-color="#4FACFE"/>
<stop offset="1" stop-color="#00F2FE"/>
</linearGradient>
<linearGradient id="paint2_linear" x1="-15.4573" y1="1145.87" x2="118.014" y2="1012.39" gradientUnits="userSpaceOnUse">
<stop stop-color="#00CDAC"/>
<stop offset="1" stop-color="#8DDAD5"/>
</linearGradient>
<linearGradient id="paint3_linear" x1="28.1673" y1="950.962" x2="93.2206" y2="1063.64" gradientUnits="userSpaceOnUse">
<stop stop-color="#4FACFE"/>
<stop offset="1" stop-color="#00F2FE"/>
</linearGradient>
<linearGradient id="paint4_linear" x1="202.121" y1="71.2058" x2="363.099" y2="71.2058" gradientUnits="userSpaceOnUse">
<stop stop-color="#89F7FE"/>
<stop offset="1" stop-color="#66A6FF"/>
</linearGradient>
<linearGradient id="paint5_linear" x1="292.459" y1="115.469" x2="382.57" y2="115.469" gradientUnits="userSpaceOnUse">
<stop stop-color="#84FAB0"/>
<stop offset="1" stop-color="#8FD3F4"/>
</linearGradient>
<linearGradient id="paint6_linear" x1="266.151" y1="857.836" x2="307.815" y2="702.343" gradientUnits="userSpaceOnUse">
<stop stop-color="#89F7FE"/>
<stop offset="1" stop-color="#66A6FF"/>
</linearGradient>
<linearGradient id="paint7_linear" x1="332.287" y1="782.032" x2="355.61" y2="694.991" gradientUnits="userSpaceOnUse">
<stop stop-color="#84FAB0"/>
<stop offset="1" stop-color="#8FD3F4"/>
</linearGradient>
<linearGradient id="paint8_linear" x1="75.6935" y1="1944.84" x2="26.8394" y2="1762.51" gradientUnits="userSpaceOnUse">
<stop stop-color="#00CDAC"/>
<stop offset="1" stop-color="#8DDAD5"/>
</linearGradient>
<linearGradient id="paint9_linear" x1="-71.2861" y1="1809.61" x2="58.8204" y2="1809.61" gradientUnits="userSpaceOnUse">
<stop stop-color="#4FACFE"/>
<stop offset="1" stop-color="#00F2FE"/>
</linearGradient>
<linearGradient id="paint10_linear" x1="75.6935" y1="3701.84" x2="26.8394" y2="3519.51" gradientUnits="userSpaceOnUse">
<stop stop-color="#00CDAC"/>
<stop offset="1" stop-color="#8DDAD5"/>
</linearGradient>
<linearGradient id="paint11_linear" x1="-71.2861" y1="3566.61" x2="58.8204" y2="3566.61" gradientUnits="userSpaceOnUse">
<stop stop-color="#4FACFE"/>
<stop offset="1" stop-color="#00F2FE"/>
</linearGradient>
<linearGradient id="paint12_linear" x1="-15.4573" y1="2709.87" x2="118.014" y2="2576.39" gradientUnits="userSpaceOnUse">
<stop stop-color="#00CDAC"/>
<stop offset="1" stop-color="#8DDAD5"/>
</linearGradient>
<linearGradient id="paint13_linear" x1="28.1673" y1="2514.96" x2="93.2206" y2="2627.64" gradientUnits="userSpaceOnUse">
<stop stop-color="#4FACFE"/>
<stop offset="1" stop-color="#00F2FE"/>
</linearGradient>
<linearGradient id="paint14_linear" x1="202.121" y1="1635.21" x2="363.099" y2="1635.21" gradientUnits="userSpaceOnUse">
<stop stop-color="#89F7FE"/>
<stop offset="1" stop-color="#66A6FF"/>
</linearGradient>
<linearGradient id="paint15_linear" x1="292.459" y1="1679.47" x2="382.57" y2="1679.47" gradientUnits="userSpaceOnUse">
<stop stop-color="#84FAB0"/>
<stop offset="1" stop-color="#8FD3F4"/>
</linearGradient>
<linearGradient id="paint16_linear" x1="202.121" y1="3392.21" x2="363.099" y2="3392.21" gradientUnits="userSpaceOnUse">
<stop stop-color="#89F7FE"/>
<stop offset="1" stop-color="#66A6FF"/>
</linearGradient>
<linearGradient id="paint17_linear" x1="292.459" y1="3436.47" x2="382.57" y2="3436.47" gradientUnits="userSpaceOnUse">
<stop stop-color="#84FAB0"/>
<stop offset="1" stop-color="#8FD3F4"/>
</linearGradient>
<linearGradient id="paint18_linear" x1="266.151" y1="2421.84" x2="307.815" y2="2266.34" gradientUnits="userSpaceOnUse">
<stop stop-color="#89F7FE"/>
<stop offset="1" stop-color="#66A6FF"/>
</linearGradient>
<linearGradient id="paint19_linear" x1="332.287" y1="2346.03" x2="355.61" y2="2258.99" gradientUnits="userSpaceOnUse">
<stop stop-color="#84FAB0"/>
<stop offset="1" stop-color="#8FD3F4"/>
</linearGradient>
</defs>
</svg>
