<svg width="768" height="4554" viewBox="0 0 768 4554" fill="none" xmlns="http://www.w3.org/2000/svg">
<g filter="url(#filter0_d)">
<path fill-rule="evenodd" clip-rule="evenodd" d="M-92.1943 670.513C-91.6037 616.715 -28.8051 590.489 -2.63995 544.347C17.1308 509.482 13.9381 463.875 41.3319 435.044C72.9746 401.74 114.399 367.236 159.73 373.456C204.864 379.65 224.039 435.873 260.018 465.052C296.863 494.933 353.895 501.784 372.491 546.002C391.504 591.212 380.398 647.632 353.634 687.656C328.887 724.664 279.483 729.028 238.892 745.79C207.108 758.915 176.022 766.87 142.582 774.81C92.4262 786.718 42.2326 825.013 -5.48845 803.813C-54.3022 782.128 -92.7912 724.889 -92.1943 670.513Z" fill="url(#paint0_linear)"/>
</g>
<g filter="url(#filter1_d)">
<path fill-rule="evenodd" clip-rule="evenodd" d="M8.99374 368.014C33.326 368.431 56.898 373.904 77.817 386.339C100.438 399.786 120.748 417.303 131.961 441.111C144.219 467.137 151.525 497.131 142.931 524.585C134.296 552.168 110.902 572.327 86.1912 587.319C62.999 601.39 36.1076 604.999 8.99374 605.848C-18.9854 606.723 -50.4113 610.327 -71.7952 592.262C-92.8846 574.447 -88.6547 541.816 -97.6858 515.728C-106.974 488.898 -132.912 464.779 -125.406 437.397C-117.885 409.959 -86.8437 397.002 -61.564 383.951C-39.6013 372.613 -15.7193 367.591 8.99374 368.014Z" fill="url(#paint1_linear)"/>
</g>
<g filter="url(#filter2_d)">
<path fill-rule="evenodd" clip-rule="evenodd" d="M-92.1943 2617.51C-91.6037 2563.72 -28.8051 2537.49 -2.63995 2491.35C17.1308 2456.48 13.9381 2410.87 41.3319 2382.04C72.9746 2348.74 114.399 2314.24 159.73 2320.46C204.864 2326.65 224.039 2382.87 260.018 2412.05C296.863 2441.93 353.895 2448.78 372.491 2493C391.504 2538.21 380.398 2594.63 353.634 2634.66C328.887 2671.66 279.483 2676.03 238.892 2692.79C207.108 2705.92 176.022 2713.87 142.582 2721.81C92.4262 2733.72 42.2326 2772.01 -5.48845 2750.81C-54.3022 2729.13 -92.7912 2671.89 -92.1943 2617.51Z" fill="url(#paint2_linear)"/>
</g>
<g filter="url(#filter3_d)">
<path fill-rule="evenodd" clip-rule="evenodd" d="M8.99374 2315.01C33.326 2315.43 56.898 2320.9 77.817 2333.34C100.438 2346.79 120.748 2364.3 131.961 2388.11C144.219 2414.14 151.525 2444.13 142.931 2471.58C134.296 2499.17 110.902 2519.33 86.1912 2534.32C62.999 2548.39 36.1076 2552 8.99374 2552.85C-18.9854 2553.72 -50.4113 2557.33 -71.7952 2539.26C-92.8846 2521.45 -88.6547 2488.82 -97.6858 2462.73C-106.974 2435.9 -132.912 2411.78 -125.406 2384.4C-117.885 2356.96 -86.8437 2344 -61.564 2330.95C-39.6013 2319.61 -15.7193 2314.59 8.99374 2315.01Z" fill="url(#paint3_linear)"/>
</g>
<g filter="url(#filter4_d)">
<path fill-rule="evenodd" clip-rule="evenodd" d="M-92.1943 4593.51C-91.6037 4539.72 -28.8051 4513.49 -2.63995 4467.35C17.1308 4432.48 13.9381 4386.87 41.3319 4358.04C72.9746 4324.74 114.399 4290.24 159.73 4296.46C204.864 4302.65 224.039 4358.87 260.018 4388.05C296.863 4417.93 353.895 4424.78 372.491 4469C391.504 4514.21 380.398 4570.63 353.634 4610.66C328.887 4647.66 279.483 4652.03 238.892 4668.79C207.108 4681.92 176.022 4689.87 142.582 4697.81C92.4262 4709.72 42.2326 4748.01 -5.48845 4726.81C-54.3022 4705.13 -92.7912 4647.89 -92.1943 4593.51Z" fill="url(#paint4_linear)"/>
</g>
<g filter="url(#filter5_d)">
<path fill-rule="evenodd" clip-rule="evenodd" d="M8.99374 4291.01C33.326 4291.43 56.898 4296.9 77.817 4309.34C100.438 4322.79 120.748 4340.3 131.961 4364.11C144.219 4390.14 151.525 4420.13 142.931 4447.58C134.296 4475.17 110.902 4495.33 86.1912 4510.32C62.999 4524.39 36.1076 4528 8.99374 4528.85C-18.9854 4529.72 -50.4113 4533.33 -71.7952 4515.26C-92.8846 4497.45 -88.6547 4464.82 -97.6858 4438.73C-106.974 4411.9 -132.912 4387.78 -125.406 4360.4C-117.885 4332.96 -86.8437 4320 -61.564 4306.95C-39.6013 4295.61 -15.7193 4290.59 8.99374 4291.01Z" fill="url(#paint5_linear)"/>
</g>
<g filter="url(#filter6_d)">
<path fill-rule="evenodd" clip-rule="evenodd" d="M-173.272 1510.71C-126.386 1484.33 -72.2747 1525.6 -19.2323 1525.19C20.8472 1524.88 58.7479 1499.31 97.4134 1508.62C142.076 1519.37 192.67 1537.99 209.949 1580.36C227.152 1622.54 188.048 1667.26 180.769 1713.01C173.314 1759.86 195.896 1812.67 166.9 1850.89C137.253 1889.96 82.8391 1908.55 34.7953 1905.38C-9.62756 1902.46 -38.1092 1861.85 -72.9207 1835.08C-100.18 1814.12 -122.611 1791.18 -146.208 1766.18C-181.599 1728.7 -239.859 1704.38 -245.361 1652.45C-250.988 1599.34 -220.662 1537.39 -173.272 1510.71Z" fill="url(#paint6_linear)"/>
</g>
<g filter="url(#filter7_d)">
<path fill-rule="evenodd" clip-rule="evenodd" d="M139.293 1447.1C151.099 1468.38 158.145 1491.53 157.835 1515.86C157.501 1542.18 152.485 1568.52 137.473 1590.14C121.064 1613.77 98.7408 1635.09 70.6678 1641.37C42.4628 1647.69 13.3076 1637.51 -12.0315 1623.6C-35.8138 1610.55 -52.3849 1589.07 -66.6765 1566.01C-81.4242 1542.22 -100.258 1516.81 -95.3057 1489.26C-90.4216 1462.08 -60.048 1449.43 -41.9705 1428.57C-23.379 1407.11 -15.4599 1372.58 12.0065 1365.39C39.5284 1358.19 66.2707 1378.59 90.2124 1393.96C111.013 1407.31 127.303 1425.48 139.293 1447.1Z" fill="url(#paint7_linear)"/>
</g>
<g filter="url(#filter8_d)">
<path fill-rule="evenodd" clip-rule="evenodd" d="M-173.272 3457.71C-126.386 3431.33 -72.2747 3472.6 -19.2323 3472.19C20.8472 3471.88 58.7479 3446.31 97.4134 3455.62C142.076 3466.37 192.67 3484.99 209.949 3527.36C227.152 3569.54 188.048 3614.26 180.769 3660.01C173.314 3706.86 195.896 3759.67 166.9 3797.89C137.253 3836.96 82.8391 3855.55 34.7953 3852.38C-9.62756 3849.46 -38.1092 3808.85 -72.9207 3782.08C-100.18 3761.12 -122.611 3738.18 -146.208 3713.18C-181.599 3675.7 -239.859 3651.38 -245.361 3599.45C-250.988 3546.34 -220.662 3484.39 -173.272 3457.71Z" fill="url(#paint8_linear)"/>
</g>
<g filter="url(#filter9_d)">
<path fill-rule="evenodd" clip-rule="evenodd" d="M139.293 3394.1C151.099 3415.38 158.145 3438.53 157.835 3462.86C157.501 3489.18 152.485 3515.52 137.473 3537.14C121.064 3560.77 98.7408 3582.09 70.6678 3588.37C42.4628 3594.69 13.3076 3584.51 -12.0315 3570.6C-35.8138 3557.55 -52.3849 3536.07 -66.6765 3513.01C-81.4242 3489.22 -100.258 3463.81 -95.3057 3436.26C-90.4216 3409.08 -60.048 3396.43 -41.9705 3375.57C-23.379 3354.11 -15.4599 3319.58 12.0065 3312.39C39.5284 3305.19 66.2707 3325.59 90.2124 3340.96C111.013 3354.31 127.303 3372.48 139.293 3394.1Z" fill="url(#paint9_linear)"/>
</g>
<g filter="url(#filter10_d)">
<path fill-rule="evenodd" clip-rule="evenodd" d="M639.768 -51.2456C679.515 -60.6745 724.271 -45.0272 754.467 -17.556C783.465 8.82457 786.894 51.4047 794.777 89.7728C801.753 123.726 807.687 158.086 797.353 191.175C786.933 224.539 767.896 257.122 737.242 273.998C708.052 290.067 673.03 275.742 639.768 277.927C603.053 280.338 561.809 309.665 532.509 287.445C503.085 265.132 523.846 216.448 512.433 181.362C501.023 146.285 455.518 119.058 466.256 83.7704C476.953 48.6183 529.817 51.4364 558.841 28.8517C589.553 4.9541 601.885 -42.2587 639.768 -51.2456Z" fill="url(#paint10_linear)"/>
</g>
<g filter="url(#filter11_d)">
<path fill-rule="evenodd" clip-rule="evenodd" d="M752.882 119.681C773.738 120.218 789.282 137.58 805.392 150.836C820.464 163.237 838.548 174.827 842.998 193.831C847.34 212.378 833.823 229.385 828.031 247.531C822.197 265.806 824.226 288.685 808.995 300.348C793.718 312.046 771.943 307.705 752.882 305.074C736.097 302.757 720.372 296.672 706.997 286.27C693.976 276.143 686.466 261.738 678.55 247.265C668.604 229.079 651.011 211.657 655.072 191.331C659.168 170.824 681.497 160.434 698.367 148.076C715.31 135.665 731.886 119.139 752.882 119.681Z" fill="url(#paint11_linear)"/>
</g>
<g filter="url(#filter12_d)">
<path fill-rule="evenodd" clip-rule="evenodd" d="M639.768 1895.75C679.515 1886.33 724.271 1901.97 754.467 1929.44C783.465 1955.82 786.894 1998.4 794.777 2036.77C801.753 2070.73 807.687 2105.09 797.353 2138.18C786.933 2171.54 767.896 2204.12 737.242 2221C708.052 2237.07 673.03 2222.74 639.768 2224.93C603.053 2227.34 561.809 2256.66 532.509 2234.44C503.085 2212.13 523.846 2163.45 512.433 2128.36C501.023 2093.29 455.518 2066.06 466.256 2030.77C476.953 1995.62 529.817 1998.44 558.841 1975.85C589.553 1951.95 601.885 1904.74 639.768 1895.75Z" fill="url(#paint12_linear)"/>
</g>
<g filter="url(#filter13_d)">
<path fill-rule="evenodd" clip-rule="evenodd" d="M752.882 2066.68C773.738 2067.22 789.282 2084.58 805.392 2097.84C820.464 2110.24 838.548 2121.83 842.998 2140.83C847.34 2159.38 833.823 2176.38 828.031 2194.53C822.197 2212.81 824.226 2235.69 808.995 2247.35C793.718 2259.05 771.943 2254.7 752.882 2252.07C736.097 2249.76 720.372 2243.67 706.997 2233.27C693.976 2223.14 686.466 2208.74 678.55 2194.27C668.604 2176.08 651.011 2158.66 655.072 2138.33C659.168 2117.82 681.497 2107.43 698.367 2095.08C715.31 2082.66 731.886 2066.14 752.882 2066.68Z" fill="url(#paint13_linear)"/>
</g>
<g filter="url(#filter14_d)">
<path fill-rule="evenodd" clip-rule="evenodd" d="M639.768 3871.75C679.515 3862.33 724.271 3877.97 754.467 3905.44C783.465 3931.82 786.894 3974.4 794.777 4012.77C801.753 4046.73 807.687 4081.09 797.353 4114.18C786.933 4147.54 767.896 4180.12 737.242 4197C708.052 4213.07 673.03 4198.74 639.768 4200.93C603.053 4203.34 561.809 4232.66 532.509 4210.44C503.085 4188.13 523.846 4139.45 512.433 4104.36C501.023 4069.29 455.518 4042.06 466.256 4006.77C476.953 3971.62 529.817 3974.44 558.841 3951.85C589.553 3927.95 601.885 3880.74 639.768 3871.75Z" fill="url(#paint14_linear)"/>
</g>
<g filter="url(#filter15_d)">
<path fill-rule="evenodd" clip-rule="evenodd" d="M752.882 4042.68C773.738 4043.22 789.282 4060.58 805.392 4073.84C820.464 4086.24 838.548 4097.83 842.998 4116.83C847.34 4135.38 833.823 4152.38 828.031 4170.53C822.197 4188.81 824.226 4211.69 808.995 4223.35C793.718 4235.05 771.943 4230.7 752.882 4228.07C736.097 4225.76 720.372 4219.67 706.997 4209.27C693.976 4199.14 686.466 4184.74 678.55 4170.27C668.604 4152.08 651.011 4134.66 655.072 4114.33C659.168 4093.82 681.497 4083.43 698.367 4071.08C715.31 4058.66 731.886 4042.14 752.882 4042.68Z" fill="url(#paint15_linear)"/>
</g>
<g filter="url(#filter16_d)">
<path fill-rule="evenodd" clip-rule="evenodd" d="M505.99 1050.87C507.169 1010.04 533.867 970.859 568.218 948.802C601.205 927.62 643.221 935.328 682.322 937.644C716.924 939.694 751.65 942.855 780.936 961.401C810.467 980.101 837.012 1006.92 845.379 1040.9C853.346 1073.25 830.444 1103.38 823.946 1136.07C816.773 1172.16 834.425 1219.59 805.379 1242.14C776.211 1264.78 734.559 1232.13 697.715 1234.07C660.88 1236.02 622.803 1272.92 591.497 1253.42C560.311 1233.99 576.716 1183.65 562.413 1149.77C547.278 1113.92 504.866 1089.79 505.99 1050.87Z" fill="url(#paint16_linear)"/>
</g>
<g filter="url(#filter17_d)">
<path fill-rule="evenodd" clip-rule="evenodd" d="M700.368 985.852C706.286 965.846 727.079 955.325 744.053 943.195C759.932 931.847 775.808 917.378 795.316 917.999C814.354 918.605 827.283 936.063 843.312 946.354C859.454 956.719 882.079 960.681 889.403 978.411C896.748 996.196 886.919 1016.11 879.444 1033.84C872.862 1049.45 862.915 1063.06 849.405 1073.29C836.253 1083.25 820.395 1086.77 804.367 1090.67C784.227 1095.57 762.845 1108.06 744.262 1098.87C725.514 1089.61 721.257 1065.35 713.687 1045.86C706.083 1026.28 694.411 1005.99 700.368 985.852Z" fill="url(#paint17_linear)"/>
</g>
<g filter="url(#filter18_d)">
<path fill-rule="evenodd" clip-rule="evenodd" d="M505.99 2997.87C507.169 2957.04 533.867 2917.86 568.218 2895.8C601.205 2874.62 643.221 2882.33 682.322 2884.64C716.924 2886.69 751.65 2889.85 780.936 2908.4C810.467 2927.1 837.012 2953.92 845.379 2987.9C853.346 3020.25 830.444 3050.38 823.946 3083.07C816.773 3119.16 834.425 3166.59 805.379 3189.14C776.211 3211.78 734.559 3179.13 697.715 3181.07C660.88 3183.02 622.803 3219.92 591.497 3200.42C560.311 3180.99 576.716 3130.65 562.413 3096.77C547.278 3060.92 504.866 3036.79 505.99 2997.87Z" fill="url(#paint18_linear)"/>
</g>
<g filter="url(#filter19_d)">
<path fill-rule="evenodd" clip-rule="evenodd" d="M700.368 2932.85C706.286 2912.85 727.079 2902.33 744.053 2890.19C759.932 2878.85 775.808 2864.38 795.316 2865C814.354 2865.6 827.283 2883.06 843.312 2893.35C859.454 2903.72 882.079 2907.68 889.403 2925.41C896.748 2943.2 886.919 2963.11 879.444 2980.84C872.862 2996.45 862.915 3010.06 849.405 3020.29C836.253 3030.25 820.395 3033.77 804.367 3037.67C784.227 3042.57 762.845 3055.06 744.262 3045.87C725.514 3036.61 721.257 3012.35 713.687 2992.86C706.083 2973.28 694.411 2952.99 700.368 2932.85Z" fill="url(#paint19_linear)"/>
</g>
<defs>
<filter id="filter0_d" x="-163.571" y="317.416" width="604.726" height="541.11" filterUnits="userSpaceOnUse" color-interpolation-filters="sRGB">
<feFlood flood-opacity="0" result="BackgroundImageFix"/>
<feColorMatrix in="SourceAlpha" type="matrix" values="0 0 0 0 0 0 0 0 0 0 0 0 0 0 0 0 0 0 127 0" result="hardAlpha"/>
<feOffset dx="8" dy="8"/>
<feGaussianBlur stdDeviation="8"/>
<feColorMatrix type="matrix" values="0 0 0 0 0.454167 0 0 0 0 0.450382 0 0 0 0 0.450382 0 0 0 0.1 0"/>
<feBlend mode="normal" in2="BackgroundImageFix" result="effect1_dropShadow"/>
<feBlend mode="normal" in="SourceGraphic" in2="effect1_dropShadow" result="shape"/>
</filter>
<filter id="filter1_d" x="-134.751" y="359.99" width="305.419" height="270.74" filterUnits="userSpaceOnUse" color-interpolation-filters="sRGB">
<feFlood flood-opacity="0" result="BackgroundImageFix"/>
<feColorMatrix in="SourceAlpha" type="matrix" values="0 0 0 0 0 0 0 0 0 0 0 0 0 0 0 0 0 0 127 0" result="hardAlpha"/>
<feOffset dx="8" dy="8"/>
<feGaussianBlur stdDeviation="8"/>
<feColorMatrix type="matrix" values="0 0 0 0 0.454167 0 0 0 0 0.450382 0 0 0 0 0.450382 0 0 0 0.1 0"/>
<feBlend mode="normal" in2="BackgroundImageFix" result="effect1_dropShadow"/>
<feBlend mode="normal" in="SourceGraphic" in2="effect1_dropShadow" result="shape"/>
</filter>
<filter id="filter2_d" x="-163.571" y="2264.42" width="604.726" height="541.11" filterUnits="userSpaceOnUse" color-interpolation-filters="sRGB">
<feFlood flood-opacity="0" result="BackgroundImageFix"/>
<feColorMatrix in="SourceAlpha" type="matrix" values="0 0 0 0 0 0 0 0 0 0 0 0 0 0 0 0 0 0 127 0" result="hardAlpha"/>
<feOffset dx="8" dy="8"/>
<feGaussianBlur stdDeviation="8"/>
<feColorMatrix type="matrix" values="0 0 0 0 0.454167 0 0 0 0 0.450382 0 0 0 0 0.450382 0 0 0 0.1 0"/>
<feBlend mode="normal" in2="BackgroundImageFix" result="effect1_dropShadow"/>
<feBlend mode="normal" in="SourceGraphic" in2="effect1_dropShadow" result="shape"/>
</filter>
<filter id="filter3_d" x="-134.751" y="2306.99" width="305.419" height="270.74" filterUnits="userSpaceOnUse" color-interpolation-filters="sRGB">
<feFlood flood-opacity="0" result="BackgroundImageFix"/>
<feColorMatrix in="SourceAlpha" type="matrix" values="0 0 0 0 0 0 0 0 0 0 0 0 0 0 0 0 0 0 127 0" result="hardAlpha"/>
<feOffset dx="8" dy="8"/>
<feGaussianBlur stdDeviation="8"/>
<feColorMatrix type="matrix" values="0 0 0 0 0.454167 0 0 0 0 0.450382 0 0 0 0 0.450382 0 0 0 0.1 0"/>
<feBlend mode="normal" in2="BackgroundImageFix" result="effect1_dropShadow"/>
<feBlend mode="normal" in="SourceGraphic" in2="effect1_dropShadow" result="shape"/>
</filter>
<filter id="filter4_d" x="-163.571" y="4240.42" width="604.726" height="541.11" filterUnits="userSpaceOnUse" color-interpolation-filters="sRGB">
<feFlood flood-opacity="0" result="BackgroundImageFix"/>
<feColorMatrix in="SourceAlpha" type="matrix" values="0 0 0 0 0 0 0 0 0 0 0 0 0 0 0 0 0 0 127 0" result="hardAlpha"/>
<feOffset dx="8" dy="8"/>
<feGaussianBlur stdDeviation="8"/>
<feColorMatrix type="matrix" values="0 0 0 0 0.454167 0 0 0 0 0.450382 0 0 0 0 0.450382 0 0 0 0.1 0"/>
<feBlend mode="normal" in2="BackgroundImageFix" result="effect1_dropShadow"/>
<feBlend mode="normal" in="SourceGraphic" in2="effect1_dropShadow" result="shape"/>
</filter>
<filter id="filter5_d" x="-134.751" y="4282.99" width="305.419" height="270.74" filterUnits="userSpaceOnUse" color-interpolation-filters="sRGB">
<feFlood flood-opacity="0" result="BackgroundImageFix"/>
<feColorMatrix in="SourceAlpha" type="matrix" values="0 0 0 0 0 0 0 0 0 0 0 0 0 0 0 0 0 0 127 0" result="hardAlpha"/>
<feOffset dx="8" dy="8"/>
<feGaussianBlur stdDeviation="8"/>
<feColorMatrix type="matrix" values="0 0 0 0 0.454167 0 0 0 0 0.450382 0 0 0 0 0.450382 0 0 0 0.1 0"/>
<feBlend mode="normal" in2="BackgroundImageFix" result="effect1_dropShadow"/>
<feBlend mode="normal" in="SourceGraphic" in2="effect1_dropShadow" result="shape"/>
</filter>
<filter id="filter6_d" x="-303.666" y="1338.26" width="656.598" height="656.598" filterUnits="userSpaceOnUse" color-interpolation-filters="sRGB">
<feFlood flood-opacity="0" result="BackgroundImageFix"/>
<feColorMatrix in="SourceAlpha" type="matrix" values="0 0 0 0 0 0 0 0 0 0 0 0 0 0 0 0 0 0 127 0" result="hardAlpha"/>
<feOffset dx="8" dy="8"/>
<feGaussianBlur stdDeviation="8"/>
<feColorMatrix type="matrix" values="0 0 0 0 0.454167 0 0 0 0 0.450382 0 0 0 0 0.450382 0 0 0 0.1 0"/>
<feBlend mode="normal" in2="BackgroundImageFix" result="effect1_dropShadow"/>
<feBlend mode="normal" in="SourceGraphic" in2="effect1_dropShadow" result="shape"/>
</filter>
<filter id="filter7_d" x="-143.312" y="1321.53" width="375.464" height="388.158" filterUnits="userSpaceOnUse" color-interpolation-filters="sRGB">
<feFlood flood-opacity="0" result="BackgroundImageFix"/>
<feColorMatrix in="SourceAlpha" type="matrix" values="0 0 0 0 0 0 0 0 0 0 0 0 0 0 0 0 0 0 127 0" result="hardAlpha"/>
<feOffset dx="8" dy="8"/>
<feGaussianBlur stdDeviation="8"/>
<feColorMatrix type="matrix" values="0 0 0 0 0.454167 0 0 0 0 0.450382 0 0 0 0 0.450382 0 0 0 0.1 0"/>
<feBlend mode="normal" in2="BackgroundImageFix" result="effect1_dropShadow"/>
<feBlend mode="normal" in="SourceGraphic" in2="effect1_dropShadow" result="shape"/>
</filter>
<filter id="filter8_d" x="-303.666" y="3285.26" width="656.598" height="656.598" filterUnits="userSpaceOnUse" color-interpolation-filters="sRGB">
<feFlood flood-opacity="0" result="BackgroundImageFix"/>
<feColorMatrix in="SourceAlpha" type="matrix" values="0 0 0 0 0 0 0 0 0 0 0 0 0 0 0 0 0 0 127 0" result="hardAlpha"/>
<feOffset dx="8" dy="8"/>
<feGaussianBlur stdDeviation="8"/>
<feColorMatrix type="matrix" values="0 0 0 0 0.454167 0 0 0 0 0.450382 0 0 0 0 0.450382 0 0 0 0.1 0"/>
<feBlend mode="normal" in2="BackgroundImageFix" result="effect1_dropShadow"/>
<feBlend mode="normal" in="SourceGraphic" in2="effect1_dropShadow" result="shape"/>
</filter>
<filter id="filter9_d" x="-143.312" y="3268.53" width="375.464" height="388.158" filterUnits="userSpaceOnUse" color-interpolation-filters="sRGB">
<feFlood flood-opacity="0" result="BackgroundImageFix"/>
<feColorMatrix in="SourceAlpha" type="matrix" values="0 0 0 0 0 0 0 0 0 0 0 0 0 0 0 0 0 0 127 0" result="hardAlpha"/>
<feOffset dx="8" dy="8"/>
<feGaussianBlur stdDeviation="8"/>
<feColorMatrix type="matrix" values="0 0 0 0 0.454167 0 0 0 0 0.450382 0 0 0 0 0.450382 0 0 0 0.1 0"/>
<feBlend mode="normal" in2="BackgroundImageFix" result="effect1_dropShadow"/>
<feBlend mode="normal" in="SourceGraphic" in2="effect1_dropShadow" result="shape"/>
</filter>
<filter id="filter10_d" x="440.629" y="-62" width="370.295" height="381.714" filterUnits="userSpaceOnUse" color-interpolation-filters="sRGB">
<feFlood flood-opacity="0" result="BackgroundImageFix"/>
<feColorMatrix in="SourceAlpha" type="matrix" values="0 0 0 0 0 0 0 0 0 0 0 0 0 0 0 0 0 0 127 0" result="hardAlpha"/>
<feOffset dx="-8" dy="8"/>
<feGaussianBlur stdDeviation="8"/>
<feColorMatrix type="matrix" values="0 0 0 0 0.454167 0 0 0 0 0.450382 0 0 0 0 0.450382 0 0 0 0.1 0"/>
<feBlend mode="normal" in2="BackgroundImageFix" result="effect1_dropShadow"/>
<feBlend mode="normal" in="SourceGraphic" in2="effect1_dropShadow" result="shape"/>
</filter>
<filter id="filter11_d" x="630.474" y="111.668" width="221.369" height="220.418" filterUnits="userSpaceOnUse" color-interpolation-filters="sRGB">
<feFlood flood-opacity="0" result="BackgroundImageFix"/>
<feColorMatrix in="SourceAlpha" type="matrix" values="0 0 0 0 0 0 0 0 0 0 0 0 0 0 0 0 0 0 127 0" result="hardAlpha"/>
<feOffset dx="-8" dy="8"/>
<feGaussianBlur stdDeviation="8"/>
<feColorMatrix type="matrix" values="0 0 0 0 0.454167 0 0 0 0 0.450382 0 0 0 0 0.450382 0 0 0 0.1 0"/>
<feBlend mode="normal" in2="BackgroundImageFix" result="effect1_dropShadow"/>
<feBlend mode="normal" in="SourceGraphic" in2="effect1_dropShadow" result="shape"/>
</filter>
<filter id="filter12_d" x="440.629" y="1885" width="370.295" height="381.714" filterUnits="userSpaceOnUse" color-interpolation-filters="sRGB">
<feFlood flood-opacity="0" result="BackgroundImageFix"/>
<feColorMatrix in="SourceAlpha" type="matrix" values="0 0 0 0 0 0 0 0 0 0 0 0 0 0 0 0 0 0 127 0" result="hardAlpha"/>
<feOffset dx="-8" dy="8"/>
<feGaussianBlur stdDeviation="8"/>
<feColorMatrix type="matrix" values="0 0 0 0 0.454167 0 0 0 0 0.450382 0 0 0 0 0.450382 0 0 0 0.1 0"/>
<feBlend mode="normal" in2="BackgroundImageFix" result="effect1_dropShadow"/>
<feBlend mode="normal" in="SourceGraphic" in2="effect1_dropShadow" result="shape"/>
</filter>
<filter id="filter13_d" x="630.474" y="2058.67" width="221.369" height="220.418" filterUnits="userSpaceOnUse" color-interpolation-filters="sRGB">
<feFlood flood-opacity="0" result="BackgroundImageFix"/>
<feColorMatrix in="SourceAlpha" type="matrix" values="0 0 0 0 0 0 0 0 0 0 0 0 0 0 0 0 0 0 127 0" result="hardAlpha"/>
<feOffset dx="-8" dy="8"/>
<feGaussianBlur stdDeviation="8"/>
<feColorMatrix type="matrix" values="0 0 0 0 0.454167 0 0 0 0 0.450382 0 0 0 0 0.450382 0 0 0 0.1 0"/>
<feBlend mode="normal" in2="BackgroundImageFix" result="effect1_dropShadow"/>
<feBlend mode="normal" in="SourceGraphic" in2="effect1_dropShadow" result="shape"/>
</filter>
<filter id="filter14_d" x="440.629" y="3861" width="370.295" height="381.714" filterUnits="userSpaceOnUse" color-interpolation-filters="sRGB">
<feFlood flood-opacity="0" result="BackgroundImageFix"/>
<feColorMatrix in="SourceAlpha" type="matrix" values="0 0 0 0 0 0 0 0 0 0 0 0 0 0 0 0 0 0 127 0" result="hardAlpha"/>
<feOffset dx="-8" dy="8"/>
<feGaussianBlur stdDeviation="8"/>
<feColorMatrix type="matrix" values="0 0 0 0 0.454167 0 0 0 0 0.450382 0 0 0 0 0.450382 0 0 0 0.1 0"/>
<feBlend mode="normal" in2="BackgroundImageFix" result="effect1_dropShadow"/>
<feBlend mode="normal" in="SourceGraphic" in2="effect1_dropShadow" result="shape"/>
</filter>
<filter id="filter15_d" x="630.474" y="4034.67" width="221.369" height="220.418" filterUnits="userSpaceOnUse" color-interpolation-filters="sRGB">
<feFlood flood-opacity="0" result="BackgroundImageFix"/>
<feColorMatrix in="SourceAlpha" type="matrix" values="0 0 0 0 0 0 0 0 0 0 0 0 0 0 0 0 0 0 127 0" result="hardAlpha"/>
<feOffset dx="-8" dy="8"/>
<feGaussianBlur stdDeviation="8"/>
<feColorMatrix type="matrix" values="0 0 0 0 0.454167 0 0 0 0 0.450382 0 0 0 0 0.450382 0 0 0 0.1 0"/>
<feBlend mode="normal" in2="BackgroundImageFix" result="effect1_dropShadow"/>
<feBlend mode="normal" in="SourceGraphic" in2="effect1_dropShadow" result="shape"/>
</filter>
<filter id="filter16_d" x="434" y="884.564" width="457.355" height="449.281" filterUnits="userSpaceOnUse" color-interpolation-filters="sRGB">
<feFlood flood-opacity="0" result="BackgroundImageFix"/>
<feColorMatrix in="SourceAlpha" type="matrix" values="0 0 0 0 0 0 0 0 0 0 0 0 0 0 0 0 0 0 127 0" result="hardAlpha"/>
<feOffset dx="-8" dy="8"/>
<feGaussianBlur stdDeviation="8"/>
<feColorMatrix type="matrix" values="0 0 0 0 0.454167 0 0 0 0 0.450382 0 0 0 0 0.450382 0 0 0 0.1 0"/>
<feBlend mode="normal" in2="BackgroundImageFix" result="effect1_dropShadow"/>
<feBlend mode="normal" in="SourceGraphic" in2="effect1_dropShadow" result="shape"/>
</filter>
<filter id="filter17_d" x="650.886" y="889.988" width="263.01" height="263.683" filterUnits="userSpaceOnUse" color-interpolation-filters="sRGB">
<feFlood flood-opacity="0" result="BackgroundImageFix"/>
<feColorMatrix in="SourceAlpha" type="matrix" values="0 0 0 0 0 0 0 0 0 0 0 0 0 0 0 0 0 0 127 0" result="hardAlpha"/>
<feOffset dx="-8" dy="8"/>
<feGaussianBlur stdDeviation="8"/>
<feColorMatrix type="matrix" values="0 0 0 0 0.454167 0 0 0 0 0.450382 0 0 0 0 0.450382 0 0 0 0.1 0"/>
<feBlend mode="normal" in2="BackgroundImageFix" result="effect1_dropShadow"/>
<feBlend mode="normal" in="SourceGraphic" in2="effect1_dropShadow" result="shape"/>
</filter>
<filter id="filter18_d" x="434" y="2831.56" width="457.355" height="449.281" filterUnits="userSpaceOnUse" color-interpolation-filters="sRGB">
<feFlood flood-opacity="0" result="BackgroundImageFix"/>
<feColorMatrix in="SourceAlpha" type="matrix" values="0 0 0 0 0 0 0 0 0 0 0 0 0 0 0 0 0 0 127 0" result="hardAlpha"/>
<feOffset dx="-8" dy="8"/>
<feGaussianBlur stdDeviation="8"/>
<feColorMatrix type="matrix" values="0 0 0 0 0.454167 0 0 0 0 0.450382 0 0 0 0 0.450382 0 0 0 0.1 0"/>
<feBlend mode="normal" in2="BackgroundImageFix" result="effect1_dropShadow"/>
<feBlend mode="normal" in="SourceGraphic" in2="effect1_dropShadow" result="shape"/>
</filter>
<filter id="filter19_d" x="650.886" y="2836.99" width="263.01" height="263.683" filterUnits="userSpaceOnUse" color-interpolation-filters="sRGB">
<feFlood flood-opacity="0" result="BackgroundImageFix"/>
<feColorMatrix in="SourceAlpha" type="matrix" values="0 0 0 0 0 0 0 0 0 0 0 0 0 0 0 0 0 0 127 0" result="hardAlpha"/>
<feOffset dx="-8" dy="8"/>
<feGaussianBlur stdDeviation="8"/>
<feColorMatrix type="matrix" values="0 0 0 0 0.454167 0 0 0 0 0.450382 0 0 0 0 0.450382 0 0 0 0.1 0"/>
<feBlend mode="normal" in2="BackgroundImageFix" result="effect1_dropShadow"/>
<feBlend mode="normal" in="SourceGraphic" in2="effect1_dropShadow" result="shape"/>
</filter>
<linearGradient id="paint0_linear" x1="182.125" y1="771.549" x2="79.4587" y2="388.392" gradientUnits="userSpaceOnUse">
<stop stop-color="#00CDAC"/>
<stop offset="1" stop-color="#8DDAD5"/>
</linearGradient>
<linearGradient id="paint1_linear" x1="-126.751" y1="487.359" x2="146.668" y2="487.359" gradientUnits="userSpaceOnUse">
<stop stop-color="#4FACFE"/>
<stop offset="1" stop-color="#00F2FE"/>
</linearGradient>
<linearGradient id="paint2_linear" x1="182.125" y1="2718.55" x2="79.4587" y2="2335.39" gradientUnits="userSpaceOnUse">
<stop stop-color="#00CDAC"/>
<stop offset="1" stop-color="#8DDAD5"/>
</linearGradient>
<linearGradient id="paint3_linear" x1="-126.751" y1="2434.36" x2="146.668" y2="2434.36" gradientUnits="userSpaceOnUse">
<stop stop-color="#4FACFE"/>
<stop offset="1" stop-color="#00F2FE"/>
</linearGradient>
<linearGradient id="paint4_linear" x1="182.125" y1="4694.55" x2="79.4587" y2="4311.39" gradientUnits="userSpaceOnUse">
<stop stop-color="#00CDAC"/>
<stop offset="1" stop-color="#8DDAD5"/>
</linearGradient>
<linearGradient id="paint5_linear" x1="-126.751" y1="4410.36" x2="146.668" y2="4410.36" gradientUnits="userSpaceOnUse">
<stop stop-color="#4FACFE"/>
<stop offset="1" stop-color="#00F2FE"/>
</linearGradient>
<linearGradient id="paint6_linear" x1="-123.612" y1="1798.8" x2="156.879" y2="1518.31" gradientUnits="userSpaceOnUse">
<stop stop-color="#00CDAC"/>
<stop offset="1" stop-color="#8DDAD5"/>
</linearGradient>
<linearGradient id="paint7_linear" x1="-31.9349" y1="1389.21" x2="104.775" y2="1626" gradientUnits="userSpaceOnUse">
<stop stop-color="#4FACFE"/>
<stop offset="1" stop-color="#00F2FE"/>
</linearGradient>
<linearGradient id="paint8_linear" x1="-123.612" y1="3745.8" x2="156.879" y2="3465.31" gradientUnits="userSpaceOnUse">
<stop stop-color="#00CDAC"/>
<stop offset="1" stop-color="#8DDAD5"/>
</linearGradient>
<linearGradient id="paint9_linear" x1="-31.9349" y1="3336.21" x2="104.775" y2="3573" gradientUnits="userSpaceOnUse">
<stop stop-color="#4FACFE"/>
<stop offset="1" stop-color="#00F2FE"/>
</linearGradient>
<linearGradient id="paint10_linear" x1="464.629" y1="120.857" x2="802.924" y2="120.857" gradientUnits="userSpaceOnUse">
<stop stop-color="#89F7FE"/>
<stop offset="1" stop-color="#66A6FF"/>
</linearGradient>
<linearGradient id="paint11_linear" x1="654.474" y1="213.876" x2="843.843" y2="213.876" gradientUnits="userSpaceOnUse">
<stop stop-color="#84FAB0"/>
<stop offset="1" stop-color="#8FD3F4"/>
</linearGradient>
<linearGradient id="paint12_linear" x1="464.629" y1="2067.86" x2="802.924" y2="2067.86" gradientUnits="userSpaceOnUse">
<stop stop-color="#89F7FE"/>
<stop offset="1" stop-color="#66A6FF"/>
</linearGradient>
<linearGradient id="paint13_linear" x1="654.474" y1="2160.88" x2="843.843" y2="2160.88" gradientUnits="userSpaceOnUse">
<stop stop-color="#84FAB0"/>
<stop offset="1" stop-color="#8FD3F4"/>
</linearGradient>
<linearGradient id="paint14_linear" x1="464.629" y1="4043.86" x2="802.924" y2="4043.86" gradientUnits="userSpaceOnUse">
<stop stop-color="#89F7FE"/>
<stop offset="1" stop-color="#66A6FF"/>
</linearGradient>
<linearGradient id="paint15_linear" x1="654.474" y1="4136.88" x2="843.843" y2="4136.88" gradientUnits="userSpaceOnUse">
<stop stop-color="#84FAB0"/>
<stop offset="1" stop-color="#8FD3F4"/>
</linearGradient>
<linearGradient id="paint16_linear" x1="626.899" y1="1264.59" x2="714.456" y2="937.82" gradientUnits="userSpaceOnUse">
<stop stop-color="#89F7FE"/>
<stop offset="1" stop-color="#66A6FF"/>
</linearGradient>
<linearGradient id="paint17_linear" x1="765.884" y1="1105.29" x2="814.897" y2="922.371" gradientUnits="userSpaceOnUse">
<stop stop-color="#84FAB0"/>
<stop offset="1" stop-color="#8FD3F4"/>
</linearGradient>
<linearGradient id="paint18_linear" x1="626.899" y1="3211.59" x2="714.456" y2="2884.82" gradientUnits="userSpaceOnUse">
<stop stop-color="#89F7FE"/>
<stop offset="1" stop-color="#66A6FF"/>
</linearGradient>
<linearGradient id="paint19_linear" x1="765.884" y1="3052.29" x2="814.897" y2="2869.37" gradientUnits="userSpaceOnUse">
<stop stop-color="#84FAB0"/>
<stop offset="1" stop-color="#8FD3F4"/>
</linearGradient>
</defs>
</svg>
