<svg width="73" height="72" viewBox="0 0 73 72" fill="none" xmlns="http://www.w3.org/2000/svg">
<g filter="url(#filter0_d)">
<circle cx="36.5" cy="27.9999" r="20" fill="white"/>
</g>
<g clip-path="url(#clip0)">
<path d="M40.5419 17.9999H32.4581C29.1728 17.9999 26.5 20.6727 26.5 23.958V32.0418C26.5 35.3271 29.1728 37.9999 32.4581 37.9999H40.5419C43.8272 37.9999 46.5 35.3271 46.5 32.0418V23.958C46.5 20.6727 43.8272 17.9999 40.5419 17.9999ZM44.488 32.0418C44.488 34.2211 42.7213 35.9879 40.5419 35.9879H32.4581C30.2788 35.9879 28.512 34.2211 28.512 32.0418V23.958C28.512 21.7786 30.2788 20.0119 32.4581 20.0119H40.5419C42.7213 20.0119 44.488 21.7786 44.488 23.958V32.0418Z" fill="#19B7BB"/>
<path d="M36.4999 22.8271C33.6476 22.8271 31.3271 25.1476 31.3271 27.9998C31.3271 30.852 33.6476 33.1725 36.4999 33.1725C39.3521 33.1725 41.6726 30.852 41.6726 27.9998C41.6726 25.1475 39.3521 22.8271 36.4999 22.8271ZM36.4999 31.1605C34.7542 31.1605 33.3391 29.7454 33.3391 27.9998C33.3391 26.2542 34.7543 24.8391 36.4999 24.8391C38.2455 24.8391 39.6606 26.2542 39.6606 27.9998C39.6606 29.7454 38.2455 31.1605 36.4999 31.1605Z" fill="#19B7BB"/>
<path d="M41.6828 24.1055C42.3674 24.1055 42.9223 23.5506 42.9223 22.866C42.9223 22.1815 42.3674 21.6265 41.6828 21.6265C40.9983 21.6265 40.4434 22.1815 40.4434 22.866C40.4434 23.5506 40.9983 24.1055 41.6828 24.1055Z" fill="#19B7BB"/>
</g>
<defs>
<filter id="filter0_d" x="0.5" y="-0.00012207" width="72" height="72" filterUnits="userSpaceOnUse" color-interpolation-filters="sRGB">
<feFlood flood-opacity="0" result="BackgroundImageFix"/>
<feColorMatrix in="SourceAlpha" type="matrix" values="0 0 0 0 0 0 0 0 0 0 0 0 0 0 0 0 0 0 127 0" result="hardAlpha"/>
<feOffset dy="8"/>
<feGaussianBlur stdDeviation="8"/>
<feColorMatrix type="matrix" values="0 0 0 0 0.454167 0 0 0 0 0.450382 0 0 0 0 0.450382 0 0 0 0.15 0"/>
<feBlend mode="normal" in2="BackgroundImageFix" result="effect1_dropShadow"/>
<feBlend mode="normal" in="SourceGraphic" in2="effect1_dropShadow" result="shape"/>
</filter>
<clipPath id="clip0">
<rect width="20" height="20" fill="white" transform="translate(26.5 17.9999)"/>
</clipPath>
</defs>
</svg>
