<svg width="22" height="22" viewBox="0 0 22 22" fill="none" xmlns="http://www.w3.org/2000/svg">
<g clip-path="url(#clip0_305:3848)">
<path d="M17.3709 13.3557C16.9205 12.8867 16.3773 12.636 15.8015 12.636C15.2304 12.636 14.6825 12.8821 14.2135 13.351L12.7463 14.8137C12.6255 14.7487 12.5048 14.6883 12.3887 14.6279C12.2216 14.5444 12.0637 14.4654 11.929 14.3818C10.5546 13.5089 9.30561 12.3713 8.10765 10.8994C7.52724 10.1658 7.13721 9.54822 6.85397 8.92139C7.23472 8.57314 7.5876 8.21097 7.93121 7.86272C8.06122 7.73271 8.19123 7.59806 8.32124 7.46805C9.29632 6.49296 9.29632 5.23 8.32124 4.25492L7.05363 2.98731C6.90969 2.84337 6.76111 2.69479 6.62181 2.5462C6.34321 2.25832 6.05069 1.96115 5.74888 1.68256C5.29848 1.23681 4.75987 1 4.19339 1C3.62691 1 3.07901 1.23681 2.61468 1.68256C2.61004 1.6872 2.61004 1.6872 2.6054 1.69184L1.02669 3.28448C0.432356 3.87882 0.0933983 4.60316 0.0191063 5.44359C-0.0923317 6.79942 0.306988 8.06238 0.613442 8.88888C1.36565 10.918 2.48932 12.7985 4.16553 14.8137C6.19927 17.2421 8.64627 19.1598 11.4415 20.5109C12.5094 21.0171 13.9349 21.616 15.5276 21.7182C15.6251 21.7228 15.7272 21.7275 15.8201 21.7275C16.8927 21.7275 17.7935 21.3421 18.4992 20.5759C18.5039 20.5667 18.5132 20.562 18.5178 20.5527C18.7593 20.2602 19.0379 19.9955 19.3304 19.7123C19.53 19.5219 19.7343 19.3223 19.934 19.1133C20.3937 18.6351 20.6351 18.0779 20.6351 17.5068C20.6351 16.931 20.389 16.3784 19.9201 15.9141L17.3709 13.3557ZM19.0332 18.245C19.0286 18.245 19.0286 18.2497 19.0332 18.245C18.8521 18.44 18.6664 18.6165 18.4667 18.8115C18.1649 19.0994 17.8585 19.4012 17.5706 19.7402C17.1016 20.2416 16.5491 20.4784 15.8247 20.4784C15.7551 20.4784 15.6808 20.4784 15.6111 20.4738C14.2321 20.3856 12.9506 19.847 11.9894 19.3873C9.36133 18.115 7.05363 16.3088 5.13597 14.0197C3.55262 12.1113 2.49396 10.3469 1.79283 8.45242C1.36101 7.29625 1.20314 6.39546 1.27278 5.54574C1.31922 5.00248 1.52816 4.55209 1.91355 4.1667L3.4969 2.58335C3.72442 2.36976 3.96587 2.25368 4.20268 2.25368C4.4952 2.25368 4.73201 2.43012 4.88059 2.57871C4.88523 2.58335 4.88988 2.58799 4.89452 2.59264C5.17776 2.8573 5.44707 3.13125 5.7303 3.42378C5.87425 3.57236 6.02283 3.72094 6.17141 3.87417L7.43902 5.14178C7.93121 5.63396 7.93121 6.089 7.43902 6.58119C7.30437 6.71584 7.17436 6.8505 7.0397 6.98051C6.64967 7.37983 6.27821 7.75129 5.87425 8.11346C5.86496 8.12275 5.85567 8.12739 5.85103 8.13668C5.45171 8.536 5.526 8.92603 5.60958 9.19069C5.61422 9.20462 5.61887 9.21855 5.62351 9.23248C5.95318 10.0311 6.41751 10.7833 7.12328 11.6795L7.12792 11.6841C8.40946 13.2628 9.76065 14.4933 11.2511 15.4359C11.4415 15.5566 11.6365 15.6541 11.8222 15.747C11.9894 15.8305 12.1473 15.9095 12.2819 15.9931C12.3005 16.0023 12.3191 16.0163 12.3377 16.0256C12.4955 16.1045 12.6441 16.1416 12.7973 16.1416C13.1827 16.1416 13.4242 15.9002 13.5031 15.8213L15.0911 14.2333C15.249 14.0754 15.4997 13.885 15.7922 13.885C16.0801 13.885 16.3169 14.0661 16.4609 14.224C16.4655 14.2286 16.4655 14.2286 16.4701 14.2333L19.0286 16.7917C19.5068 17.2653 19.5068 17.7528 19.0332 18.245Z" fill="#BCBCC7"/>
</g>
<defs>
<clipPath id="clip0_305:3848">
<rect width="22" height="22" fill="white"/>
</clipPath>
</defs>
</svg>
